<svg id="visual" viewBox="0 0 3840 2160" width="3840" height="2160" xmlns="http://www.w3.org/2000/svg" xmlns:xlink="http://www.w3.org/1999/xlink" version="1.1"><rect x="0" y="0" width="3840" height="2160" fill="#644dc7"></rect><g transform="translate(-35.33340410708172 2259.9762084245363)"><path d="M1001.8 -1213.7C1253.3 -982.9 1381 -624.5 1415.8 -272.5C1450.7 79.5 1392.6 425 1229 710.7C1065.4 996.4 796.2 1222.2 493 1315.8C189.8 1409.4 -147.5 1370.7 -453.2 1255.1C-758.8 1139.5 -1032.8 947 -1184.8 684C-1336.7 420.9 -1366.6 87.3 -1351.3 -279.7C-1335.9 -646.8 -1275.4 -1047.3 -1042.7 -1281.4C-809.9 -1515.5 -405 -1583.3 -14.9 -1565.5C375.2 -1547.8 750.3 -1444.6 1001.8 -1213.7" fill="#141e28"></path></g></svg>