<svg id="visual" viewBox="0 0 3840 2160" width="3840" height="2160" xmlns="http://www.w3.org/2000/svg" xmlns:xlink="http://www.w3.org/1999/xlink" version="1.1"><rect x="0" y="0" width="3840" height="2160" fill="#7f1386"></rect><path d="M0 1380L71.2 1397.8C142.3 1415.7 284.7 1451.3 426.8 1483.3C569 1515.3 711 1543.7 853.2 1553.8C995.3 1564 1137.7 1556 1280 1537C1422.3 1518 1564.7 1488 1706.8 1482.7C1849 1477.3 1991 1496.7 2133.2 1495C2275.3 1493.3 2417.7 1470.7 2560 1451.8C2702.3 1433 2844.7 1418 2986.8 1413.8C3129 1409.7 3271 1416.3 3413.2 1446.7C3555.3 1477 3697.7 1531 3768.8 1558L3840 1585L3840 2161L3768.8 2161C3697.7 2161 3555.3 2161 3413.2 2161C3271 2161 3129 2161 2986.8 2161C2844.7 2161 2702.3 2161 2560 2161C2417.7 2161 2275.3 2161 2133.2 2161C1991 2161 1849 2161 1706.8 2161C1564.7 2161 1422.3 2161 1280 2161C1137.7 2161 995.3 2161 853.2 2161C711 2161 569 2161 426.8 2161C284.7 2161 142.3 2161 71.2 2161L0 2161Z" fill="#eb6a61"></path><path d="M0 1573L71.2 1584.2C142.3 1595.3 284.7 1617.7 426.8 1625.3C569 1633 711 1626 853.2 1637.3C995.3 1648.7 1137.7 1678.3 1280 1686.2C1422.3 1694 1564.7 1680 1706.8 1682.3C1849 1684.7 1991 1703.3 2133.2 1686.3C2275.3 1669.3 2417.7 1616.7 2560 1612C2702.3 1607.3 2844.7 1650.7 2986.8 1671C3129 1691.3 3271 1688.7 3413.2 1691.5C3555.3 1694.3 3697.7 1702.7 3768.8 1706.8L3840 1711L3840 2161L3768.8 2161C3697.7 2161 3555.3 2161 3413.2 2161C3271 2161 3129 2161 2986.8 2161C2844.7 2161 2702.3 2161 2560 2161C2417.7 2161 2275.3 2161 2133.2 2161C1991 2161 1849 2161 1706.8 2161C1564.7 2161 1422.3 2161 1280 2161C1137.7 2161 995.3 2161 853.2 2161C711 2161 569 2161 426.8 2161C284.7 2161 142.3 2161 71.2 2161L0 2161Z" fill="#e15462"></path><path d="M0 1778L71.2 1767.7C142.3 1757.3 284.7 1736.7 426.8 1735.2C569 1733.7 711 1751.3 853.2 1766.3C995.3 1781.3 1137.7 1793.7 1280 1806.8C1422.3 1820 1564.7 1834 1706.8 1830.5C1849 1827 1991 1806 2133.2 1791.3C2275.3 1776.7 2417.7 1768.3 2560 1757C2702.3 1745.7 2844.7 1731.3 2986.8 1737.8C3129 1744.3 3271 1771.7 3413.2 1771.7C3555.3 1771.7 3697.7 1744.3 3768.8 1730.7L3840 1717L3840 2161L3768.8 2161C3697.7 2161 3555.3 2161 3413.2 2161C3271 2161 3129 2161 2986.8 2161C2844.7 2161 2702.3 2161 2560 2161C2417.7 2161 2275.3 2161 2133.2 2161C1991 2161 1849 2161 1706.8 2161C1564.7 2161 1422.3 2161 1280 2161C1137.7 2161 995.3 2161 853.2 2161C711 2161 569 2161 426.8 2161C284.7 2161 142.3 2161 71.2 2161L0 2161Z" fill="#d53c64"></path><path d="M0 1886L71.2 1896.2C142.3 1906.3 284.7 1926.7 426.8 1945.5C569 1964.3 711 1981.7 853.2 1990.2C995.3 1998.7 1137.7 1998.3 1280 1989.7C1422.3 1981 1564.7 1964 1706.8 1964.2C1849 1964.3 1991 1981.7 2133.2 1989.2C2275.3 1996.7 2417.7 1994.3 2560 1986.5C2702.3 1978.7 2844.7 1965.3 2986.8 1947.5C3129 1929.7 3271 1907.3 3413.2 1914.8C3555.3 1922.3 3697.7 1959.7 3768.8 1978.3L3840 1997L3840 2161L3768.8 2161C3697.7 2161 3555.3 2161 3413.2 2161C3271 2161 3129 2161 2986.8 2161C2844.7 2161 2702.3 2161 2560 2161C2417.7 2161 2275.3 2161 2133.2 2161C1991 2161 1849 2161 1706.8 2161C1564.7 2161 1422.3 2161 1280 2161C1137.7 2161 995.3 2161 853.2 2161C711 2161 569 2161 426.8 2161C284.7 2161 142.3 2161 71.2 2161L0 2161Z" fill="#c62368"></path></svg>