<svg id="visual" viewBox="0 0 3840 2160" width="3840" height="2160" xmlns="http://www.w3.org/2000/svg" xmlns:xlink="http://www.w3.org/1999/xlink" version="1.1"><rect x="0" y="0" width="3840" height="2160" fill="#cc286d"></rect><path d="M1460 0L1458.5 60C1457 120 1454 240 1533.2 360C1612.3 480 1773.7 600 1886.8 720C2000 840 2065 960 2059.5 1080C2054 1200 1978 1320 1926.7 1440C1875.3 1560 1848.7 1680 1880.8 1800C1913 1920 2004 2040 2049.5 2100L2095 2160L0 2160L0 2100C0 2040 0 1920 0 1800C0 1680 0 1560 0 1440C0 1320 0 1200 0 1080C0 960 0 840 0 720C0 600 0 480 0 360C0 240 0 120 0 60L0 0Z" fill="#CCCCCC" stroke-linecap="round" stroke-linejoin="miter"></path></svg>