<svg id="visual" viewBox="0 0 3840 2160" width="3840" height="2160" xmlns="http://www.w3.org/2000/svg" xmlns:xlink="http://www.w3.org/1999/xlink" version="1.1"><rect x="0" y="0" width="3840" height="2160" fill="#0066FF"></rect><path d="M0 1670L91.5 1675C183 1680 366 1690 548.8 1671.2C731.7 1652.3 914.3 1604.7 1097.2 1558.2C1280 1511.7 1463 1466.3 1645.8 1474.3C1828.7 1482.3 2011.3 1543.7 2194.2 1588.5C2377 1633.3 2560 1661.7 2742.8 1649.3C2925.7 1637 3108.3 1584 3291.2 1544.7C3474 1505.3 3657 1479.7 3748.5 1466.8L3840 1454L3840 2161L3748.5 2161C3657 2161 3474 2161 3291.2 2161C3108.3 2161 2925.7 2161 2742.8 2161C2560 2161 2377 2161 2194.2 2161C2011.3 2161 1828.7 2161 1645.8 2161C1463 2161 1280 2161 1097.2 2161C914.3 2161 731.7 2161 548.8 2161C366 2161 183 2161 91.5 2161L0 2161Z" fill="#001122" stroke-linecap="round" stroke-linejoin="miter"></path></svg>